G04 EAGLE Gerber RS-274X export*
G75*
%MOMM*%
%FSLAX34Y34*%
%LPD*%
%INBottom Copper*%
%IPPOS*%
%AMOC8*
5,1,8,0,0,1.08239X$1,22.5*%
G01*
%ADD10C,3.400000*%
%ADD11C,1.600000*%
%ADD12C,2.000000*%
%ADD13C,1.800000*%
%ADD14C,0.650000*%
%ADD15C,0.355000*%
%ADD16C,0.600000*%
%ADD17C,0.380000*%
%ADD18C,0.400000*%
%ADD19C,0.330000*%
%ADD20C,0.370000*%
%ADD21C,0.300000*%
%ADD22C,0.350000*%
%ADD23C,1.200000*%
%ADD24C,0.800000*%
%ADD25C,0.160000*%
%ADD26C,0.320000*%

G36*
X102005Y126202D02*
X102005Y126202D01*
X102010Y126201D01*
X102130Y126222D01*
X102249Y126241D01*
X102253Y126243D01*
X102259Y126244D01*
X102366Y126301D01*
X102473Y126356D01*
X102477Y126359D01*
X102481Y126362D01*
X102564Y126448D01*
X102650Y126535D01*
X102653Y126540D01*
X102656Y126544D01*
X102708Y126652D01*
X102763Y126761D01*
X102763Y126766D01*
X102766Y126771D01*
X102799Y127000D01*
X102799Y129892D01*
X102789Y129957D01*
X102788Y130023D01*
X102769Y130081D01*
X102760Y130141D01*
X102729Y130200D01*
X102708Y130262D01*
X102672Y130311D01*
X102644Y130365D01*
X102597Y130412D01*
X102558Y130465D01*
X102508Y130500D01*
X102465Y130542D01*
X102406Y130572D01*
X102352Y130610D01*
X102294Y130628D01*
X102239Y130655D01*
X102174Y130664D01*
X102111Y130684D01*
X102050Y130683D01*
X101990Y130691D01*
X101925Y130680D01*
X101859Y130679D01*
X101802Y130659D01*
X101741Y130649D01*
X101683Y130618D01*
X101621Y130596D01*
X101568Y130557D01*
X101519Y130530D01*
X101483Y130493D01*
X101435Y130457D01*
X100938Y129961D01*
X97410Y128499D01*
X93590Y128499D01*
X90062Y129961D01*
X87361Y132662D01*
X85899Y136190D01*
X85899Y140010D01*
X87361Y143538D01*
X90062Y146239D01*
X92772Y147362D01*
X92828Y147396D01*
X92889Y147422D01*
X92934Y147462D01*
X92986Y147494D01*
X93029Y147544D01*
X93079Y147587D01*
X93110Y147639D01*
X93149Y147686D01*
X93174Y147747D01*
X93208Y147804D01*
X93221Y147863D01*
X93244Y147919D01*
X93249Y147985D01*
X93263Y148049D01*
X93258Y148110D01*
X93262Y148171D01*
X93246Y148235D01*
X93239Y148300D01*
X93215Y148356D01*
X93200Y148415D01*
X93165Y148471D01*
X93139Y148531D01*
X93098Y148577D01*
X93065Y148628D01*
X93015Y148670D01*
X92971Y148719D01*
X92914Y148753D01*
X92871Y148789D01*
X92823Y148808D01*
X92772Y148838D01*
X90062Y149961D01*
X87361Y152662D01*
X85899Y156190D01*
X85899Y160010D01*
X87361Y163538D01*
X90062Y166239D01*
X93590Y167701D01*
X97410Y167701D01*
X100938Y166239D01*
X101435Y165743D01*
X101488Y165704D01*
X101535Y165658D01*
X101590Y165630D01*
X101639Y165595D01*
X101702Y165575D01*
X101761Y165545D01*
X101821Y165536D01*
X101879Y165518D01*
X101945Y165518D01*
X102010Y165509D01*
X102070Y165519D01*
X102131Y165519D01*
X102194Y165540D01*
X102259Y165551D01*
X102312Y165580D01*
X102370Y165599D01*
X102423Y165639D01*
X102481Y165670D01*
X102523Y165713D01*
X102572Y165750D01*
X102610Y165804D01*
X102656Y165851D01*
X102682Y165906D01*
X102718Y165956D01*
X102737Y166019D01*
X102766Y166078D01*
X102775Y166144D01*
X102792Y166197D01*
X102791Y166248D01*
X102799Y166308D01*
X102799Y241200D01*
X102798Y241205D01*
X102799Y241210D01*
X102778Y241330D01*
X102760Y241449D01*
X102757Y241453D01*
X102756Y241459D01*
X102699Y241566D01*
X102644Y241673D01*
X102641Y241677D01*
X102638Y241681D01*
X102552Y241764D01*
X102465Y241850D01*
X102460Y241853D01*
X102457Y241856D01*
X102348Y241908D01*
X102239Y241963D01*
X102234Y241963D01*
X102230Y241966D01*
X102000Y241999D01*
X72609Y241999D01*
X72593Y242015D01*
X72535Y242057D01*
X72484Y242106D01*
X72434Y242130D01*
X72388Y242163D01*
X72321Y242185D01*
X72257Y242216D01*
X72197Y242224D01*
X72148Y242240D01*
X72093Y242240D01*
X72027Y242249D01*
X59000Y242249D01*
X58995Y242248D01*
X58990Y242249D01*
X58870Y242228D01*
X58751Y242210D01*
X58747Y242207D01*
X58741Y242206D01*
X58634Y242149D01*
X58527Y242094D01*
X58523Y242091D01*
X58519Y242088D01*
X58436Y242002D01*
X58350Y241915D01*
X58347Y241910D01*
X58344Y241907D01*
X58292Y241798D01*
X58237Y241689D01*
X58237Y241684D01*
X58234Y241680D01*
X58201Y241450D01*
X58201Y239565D01*
X58212Y239495D01*
X58213Y239424D01*
X58232Y239372D01*
X58241Y239316D01*
X58273Y239253D01*
X58296Y239186D01*
X58332Y239138D01*
X58356Y239092D01*
X58395Y239053D01*
X58435Y239000D01*
X58851Y238584D01*
X58851Y234566D01*
X58435Y234150D01*
X58393Y234092D01*
X58344Y234041D01*
X58320Y233991D01*
X58287Y233946D01*
X58265Y233878D01*
X58234Y233814D01*
X58226Y233755D01*
X58210Y233706D01*
X58210Y233650D01*
X58201Y233585D01*
X58201Y127236D01*
X58212Y127166D01*
X58213Y127095D01*
X58232Y127042D01*
X58241Y126987D01*
X58273Y126924D01*
X58296Y126857D01*
X58332Y126808D01*
X58356Y126763D01*
X58395Y126723D01*
X58435Y126671D01*
X58671Y126435D01*
X58728Y126393D01*
X58779Y126344D01*
X58829Y126320D01*
X58875Y126287D01*
X58942Y126265D01*
X59006Y126234D01*
X59066Y126226D01*
X59115Y126210D01*
X59170Y126210D01*
X59236Y126201D01*
X102000Y126201D01*
X102005Y126202D01*
G37*
D10*
X47800Y111000D03*
X168200Y111000D03*
D11*
X95500Y138100D03*
X120500Y138100D03*
X95500Y158100D03*
X120500Y158100D03*
D12*
X456000Y114000D03*
X409000Y144000D03*
X409000Y84000D03*
D13*
X393000Y168000D03*
X396000Y199000D03*
X373000Y199000D03*
X434000Y396000D03*
X134000Y196000D03*
X177000Y257000D03*
D14*
X370000Y340000D03*
D15*
X371000Y341000D02*
X456000Y341000D01*
X371000Y341000D02*
X370000Y340000D01*
D14*
X456000Y341000D03*
D16*
X339750Y312150D03*
D17*
X340000Y332900D02*
X339900Y333000D01*
D16*
X339900Y333000D03*
D17*
X340000Y332900D02*
X340000Y329546D01*
X333250Y322796D01*
X338650Y313250D02*
X339750Y312150D01*
X338650Y313250D02*
X337204Y313250D01*
X333250Y317204D01*
X333250Y322796D01*
D14*
X340000Y320000D03*
D15*
X430000Y320000D01*
X430000Y290000D01*
D14*
X430000Y290000D03*
X340887Y278267D03*
X323000Y237050D03*
D17*
X287098Y253805D02*
X283290Y249997D01*
X283290Y239650D02*
X286891Y236050D01*
X283290Y239650D02*
X283290Y249997D01*
X287098Y253805D02*
X316424Y253805D01*
X340887Y278267D01*
X323000Y237050D02*
X322000Y236050D01*
X286891Y236050D01*
D16*
X210000Y240000D03*
X190000Y340000D03*
D18*
X190000Y260000D02*
X210000Y240000D01*
X190000Y260000D02*
X190000Y340000D01*
D14*
X230000Y278975D03*
D17*
X261054Y244950D02*
X266646Y244950D01*
X276500Y262692D02*
X273000Y266192D01*
X249450Y259525D02*
X249450Y256554D01*
X261054Y244950D01*
X266646Y244950D02*
X276500Y254804D01*
X276500Y262692D01*
X249450Y259525D02*
X230000Y278975D01*
X272395Y273605D02*
X273000Y273000D01*
X272395Y274605D02*
X271395Y275605D01*
X272395Y274605D02*
X272395Y273605D01*
D14*
X271395Y275605D03*
D17*
X273000Y273000D02*
X273000Y266192D01*
D14*
X400000Y216250D03*
X400000Y230000D03*
D17*
X400000Y216250D01*
D14*
X316000Y229300D03*
X342000Y220000D03*
D19*
X332700Y229300D02*
X316000Y229300D01*
X332700Y229300D02*
X342000Y220000D01*
D14*
X340000Y300000D03*
X296000Y243700D03*
D17*
X347637Y275471D02*
X347637Y281063D01*
X340000Y288701D01*
X347637Y275471D02*
X340000Y267834D01*
X318661Y248404D02*
X300704Y248404D01*
X338091Y267834D02*
X340000Y267834D01*
X338091Y267834D02*
X318661Y248404D01*
D20*
X340000Y288701D02*
X340000Y300000D01*
D15*
X300704Y248404D02*
X296000Y243700D01*
D16*
X270000Y260000D03*
X366900Y376100D03*
D17*
X362344Y376100D01*
X264645Y278401D01*
X270000Y261556D02*
X270000Y260000D01*
X264645Y266911D02*
X264645Y278401D01*
X264645Y266911D02*
X270000Y261556D01*
D14*
X263850Y251700D03*
X367000Y410600D03*
D17*
X367000Y388393D01*
X259245Y280638D01*
X263850Y256958D02*
X263850Y251700D01*
X259245Y261562D02*
X259245Y280638D01*
X259245Y261562D02*
X263850Y256958D01*
D14*
X354000Y437000D03*
D21*
X351000Y434000D01*
X351000Y408000D01*
X350227Y407227D01*
D14*
X350227Y407227D03*
X53487Y275900D03*
D21*
X50000Y279387D01*
D14*
X50000Y291000D03*
X78561Y377439D03*
D21*
X78561Y423561D01*
X93000Y438000D02*
X93000Y439000D01*
D14*
X93000Y439000D03*
D21*
X50000Y291000D02*
X50000Y279387D01*
X78561Y423561D02*
X93000Y438000D01*
D14*
X350031Y380969D03*
D21*
X171031Y380969D01*
X128000Y424000D01*
X122000Y424000D01*
D14*
X122000Y424000D03*
D16*
X42100Y277600D03*
X112413Y245600D03*
D18*
X74100Y245600D01*
X42100Y277600D01*
D14*
X18000Y229000D03*
D22*
X34600Y245600D01*
X74100Y245600D01*
X23734Y260400D02*
X18266Y260400D01*
X14400Y264266D01*
X40934Y277600D02*
X42100Y277600D01*
X36000Y302324D02*
X36000Y331000D01*
X40934Y277600D02*
X23734Y260400D01*
X14400Y264266D02*
X14400Y280724D01*
X36000Y302324D01*
D14*
X36000Y331000D03*
D16*
X177000Y211000D03*
D15*
X170300Y204300D01*
X143700Y204300D01*
X138225Y209775D01*
X138225Y209875D01*
D16*
X138225Y209875D03*
X47000Y201000D03*
D14*
X103000Y178000D03*
D18*
X70000Y178000D01*
X47000Y201000D01*
D23*
X133000Y250000D03*
D24*
X140500Y242500D01*
X159500Y242500D01*
D14*
X159000Y232000D03*
D24*
X159000Y242000D01*
X159500Y242500D01*
D25*
X50885Y241450D02*
X36319Y241450D01*
X48350Y238915D02*
X50885Y241450D01*
X48350Y238915D02*
X48350Y236582D01*
X46768Y235000D01*
X29869Y235000D01*
X36319Y241450D01*
X287590Y241431D02*
X287590Y248216D01*
X288879Y249505D01*
X295900Y249505D01*
X295746Y249350D01*
X293660Y249350D01*
X290350Y246040D01*
X290350Y241360D01*
X291360Y240350D01*
X288672Y240350D01*
X287590Y241431D01*
X270215Y254600D02*
X269500Y253885D01*
X269500Y254040D01*
X268940Y254600D01*
X270215Y254600D01*
X46100Y286910D02*
X44350Y288660D01*
X46100Y286910D02*
X46100Y281237D01*
X44337Y283000D01*
X39863Y283000D01*
X36700Y279837D01*
X36700Y279235D01*
X26650Y269185D01*
X26650Y269340D01*
X25758Y270232D01*
X44350Y288825D01*
X44350Y288660D01*
X19675Y273200D02*
X19125Y272650D01*
X18660Y272650D01*
X18550Y272540D01*
X18550Y279005D01*
X33450Y293905D01*
X33450Y293750D01*
X36760Y290440D01*
X36915Y290440D01*
X19675Y273200D01*
X54407Y249750D02*
X55800Y249750D01*
X54513Y249856D02*
X54407Y249750D01*
X54513Y249856D02*
X55800Y249856D01*
X55800Y249750D01*
X46974Y261983D02*
X48624Y263633D01*
X48624Y264854D01*
X52321Y261156D01*
X52166Y261156D01*
X49833Y258824D01*
X46974Y261683D01*
X46974Y261983D01*
X3800Y3800D02*
X486200Y3800D01*
X3800Y3800D02*
X3800Y476200D01*
X486200Y476200D01*
X486200Y3800D01*
X66650Y400660D02*
X66650Y405340D01*
X63340Y408650D01*
X58660Y408650D01*
X55350Y405340D01*
X55350Y400660D01*
X57100Y398910D01*
X57100Y371385D01*
X81747Y346737D01*
X81350Y346340D01*
X81350Y341660D01*
X84660Y338350D01*
X89340Y338350D01*
X92650Y341660D01*
X92650Y346340D01*
X90900Y348090D01*
X90900Y348615D01*
X64900Y374615D01*
X64900Y398910D01*
X66650Y400660D01*
X48650Y342340D02*
X48650Y337660D01*
X48650Y342340D02*
X45340Y345650D01*
X40660Y345650D01*
X37350Y342340D01*
X37350Y337660D01*
X39000Y336010D01*
X39000Y335990D01*
X38340Y336650D01*
X33660Y336650D01*
X30350Y333340D01*
X30350Y328660D01*
X31850Y327160D01*
X31850Y304043D01*
X10250Y282443D01*
X10250Y262547D01*
X12681Y260116D01*
X16547Y256250D01*
X25453Y256250D01*
X37324Y268121D01*
X37324Y263633D01*
X38974Y261983D01*
X38974Y258370D01*
X46000Y251343D01*
X47593Y249750D01*
X32881Y249750D01*
X30450Y247319D01*
X17781Y234650D01*
X15660Y234650D01*
X12350Y231340D01*
X12350Y226660D01*
X15660Y223350D01*
X17693Y223350D01*
X14993Y220650D01*
X12660Y220650D01*
X9350Y217340D01*
X9350Y212660D01*
X12660Y209350D01*
X17340Y209350D01*
X20650Y212660D01*
X20650Y214993D01*
X32657Y227000D01*
X50082Y227000D01*
X52425Y229343D01*
X54007Y230925D01*
X55800Y230925D01*
X55800Y198422D01*
X52400Y201823D01*
X52400Y203237D01*
X49237Y206400D01*
X44763Y206400D01*
X41600Y203237D01*
X41600Y198763D01*
X44763Y195600D01*
X46177Y195600D01*
X55800Y185977D01*
X55800Y128685D01*
X51659Y130400D01*
X43941Y130400D01*
X36811Y127447D01*
X31353Y121989D01*
X28400Y114859D01*
X28400Y107141D01*
X31353Y100011D01*
X36811Y94553D01*
X43941Y91600D01*
X51659Y91600D01*
X58789Y94553D01*
X64247Y100011D01*
X67200Y107141D01*
X67200Y114859D01*
X64247Y121989D01*
X62436Y123800D01*
X103325Y123800D01*
X105200Y125675D01*
X105200Y134341D01*
X105900Y136031D01*
X105900Y140169D01*
X105200Y141859D01*
X105200Y154341D01*
X105900Y156031D01*
X105900Y160169D01*
X105200Y161859D01*
X105200Y172350D01*
X105340Y172350D01*
X108650Y175660D01*
X108650Y180340D01*
X105340Y183650D01*
X105200Y183650D01*
X105200Y241200D01*
X109176Y241200D01*
X110176Y240200D01*
X114650Y240200D01*
X117813Y243363D01*
X117813Y247837D01*
X114650Y251000D01*
X110176Y251000D01*
X109176Y250000D01*
X105200Y250000D01*
X105200Y275325D01*
X103325Y277200D01*
X59137Y277200D01*
X59137Y278240D01*
X55828Y281550D01*
X53900Y281550D01*
X53900Y286910D01*
X55650Y288660D01*
X55650Y293340D01*
X52340Y296650D01*
X52175Y296650D01*
X54325Y298800D01*
X100210Y298800D01*
X102660Y296350D01*
X107340Y296350D01*
X110650Y299660D01*
X110650Y304340D01*
X107340Y307650D01*
X102660Y307650D01*
X100210Y305200D01*
X51675Y305200D01*
X47000Y300525D01*
X47000Y336010D01*
X48650Y337660D01*
X140121Y254758D02*
X141400Y251671D01*
X140121Y254758D02*
X137758Y257121D01*
X134671Y258400D01*
X131329Y258400D01*
X128242Y257121D01*
X125879Y254758D01*
X124600Y251671D01*
X124600Y248329D01*
X125879Y245242D01*
X128242Y242879D01*
X131329Y241600D01*
X132349Y241600D01*
X135074Y238875D01*
X136875Y237074D01*
X139227Y236100D01*
X152600Y236100D01*
X152600Y230727D01*
X153574Y228375D01*
X155375Y226574D01*
X157727Y225600D01*
X160273Y225600D01*
X162625Y226574D01*
X164426Y228375D01*
X165400Y230727D01*
X165400Y240020D01*
X165900Y241227D01*
X165900Y243773D01*
X164926Y246125D01*
X163125Y247926D01*
X160773Y248900D01*
X143151Y248900D01*
X141400Y250651D01*
X141400Y251671D01*
X359650Y434660D02*
X359650Y439340D01*
X356340Y442650D01*
X351660Y442650D01*
X348350Y439340D01*
X348350Y436865D01*
X347100Y435615D01*
X347100Y412090D01*
X344577Y409567D01*
X344577Y404887D01*
X347887Y401577D01*
X352567Y401577D01*
X355877Y404887D01*
X355877Y409567D01*
X354900Y410544D01*
X354900Y431350D01*
X356340Y431350D01*
X359650Y434660D01*
X215400Y242237D02*
X215400Y237763D01*
X215400Y242237D02*
X212237Y245400D01*
X210823Y245400D01*
X194400Y261823D01*
X194400Y336763D01*
X195400Y337763D01*
X195400Y342237D01*
X192237Y345400D01*
X187763Y345400D01*
X184600Y342237D01*
X184600Y337763D01*
X185600Y336763D01*
X185600Y264522D01*
X183458Y266664D01*
X179268Y268400D01*
X174732Y268400D01*
X170542Y266664D01*
X167336Y263458D01*
X165600Y259268D01*
X165600Y254732D01*
X167336Y250542D01*
X170542Y247336D01*
X174732Y245600D01*
X179268Y245600D01*
X183458Y247336D01*
X186664Y250542D01*
X188400Y254732D01*
X188400Y255378D01*
X204600Y239177D01*
X204600Y237763D01*
X207763Y234600D01*
X212237Y234600D01*
X215400Y237763D01*
X187600Y114859D02*
X187600Y107141D01*
X187600Y114859D02*
X184647Y121989D01*
X179189Y127447D01*
X172059Y130400D01*
X164341Y130400D01*
X157211Y127447D01*
X151753Y121989D01*
X148800Y114859D01*
X148800Y107141D01*
X151753Y100011D01*
X157211Y94553D01*
X164341Y91600D01*
X172059Y91600D01*
X179189Y94553D01*
X184647Y100011D01*
X187600Y107141D01*
X130900Y136031D02*
X130900Y140169D01*
X129317Y143991D01*
X126391Y146917D01*
X123534Y148100D01*
X126391Y149283D01*
X129317Y152209D01*
X130900Y156031D01*
X130900Y160169D01*
X129317Y163991D01*
X126391Y166917D01*
X122569Y168500D01*
X118431Y168500D01*
X114609Y166917D01*
X111683Y163991D01*
X110100Y160169D01*
X110100Y156031D01*
X111683Y152209D01*
X114609Y149283D01*
X117466Y148100D01*
X114609Y146917D01*
X111683Y143991D01*
X110100Y140169D01*
X110100Y136031D01*
X111683Y132209D01*
X114609Y129283D01*
X118431Y127700D01*
X122569Y127700D01*
X126391Y129283D01*
X129317Y132209D01*
X130900Y136031D01*
X468400Y116467D02*
X468400Y111533D01*
X468400Y116467D02*
X466512Y121024D01*
X463024Y124512D01*
X458467Y126400D01*
X453533Y126400D01*
X448976Y124512D01*
X445488Y121024D01*
X443600Y116467D01*
X443600Y111533D01*
X445488Y106976D01*
X448976Y103488D01*
X453533Y101600D01*
X458467Y101600D01*
X463024Y103488D01*
X466512Y106976D01*
X468400Y111533D01*
X421400Y141533D02*
X421400Y146467D01*
X419512Y151024D01*
X416024Y154512D01*
X411467Y156400D01*
X406533Y156400D01*
X401976Y154512D01*
X398488Y151024D01*
X396600Y146467D01*
X396600Y141533D01*
X398488Y136976D01*
X401976Y133488D01*
X406533Y131600D01*
X411467Y131600D01*
X416024Y133488D01*
X419512Y136976D01*
X421400Y141533D01*
X421400Y86467D02*
X421400Y81533D01*
X421400Y86467D02*
X419512Y91024D01*
X416024Y94512D01*
X411467Y96400D01*
X406533Y96400D01*
X401976Y94512D01*
X398488Y91024D01*
X396600Y86467D01*
X396600Y81533D01*
X398488Y76976D01*
X401976Y73488D01*
X406533Y71600D01*
X411467Y71600D01*
X416024Y73488D01*
X419512Y76976D01*
X421400Y81533D01*
X404400Y165732D02*
X404400Y170268D01*
X402664Y174458D01*
X399458Y177664D01*
X395268Y179400D01*
X390732Y179400D01*
X386542Y177664D01*
X383336Y174458D01*
X381600Y170268D01*
X381600Y165732D01*
X383336Y161542D01*
X386542Y158336D01*
X390732Y156600D01*
X395268Y156600D01*
X399458Y158336D01*
X402664Y161542D01*
X404400Y165732D01*
X407400Y196732D02*
X407400Y201268D01*
X405664Y205458D01*
X402458Y208664D01*
X398268Y210400D01*
X393732Y210400D01*
X389542Y208664D01*
X386336Y205458D01*
X384600Y201268D01*
X384600Y196732D01*
X386336Y192542D01*
X389542Y189336D01*
X393732Y187600D01*
X398268Y187600D01*
X402458Y189336D01*
X405664Y192542D01*
X407400Y196732D01*
X384400Y196732D02*
X384400Y201268D01*
X382664Y205458D01*
X379458Y208664D01*
X375268Y210400D01*
X370732Y210400D01*
X366542Y208664D01*
X363336Y205458D01*
X361600Y201268D01*
X361600Y196732D01*
X363336Y192542D01*
X366542Y189336D01*
X370732Y187600D01*
X375268Y187600D01*
X379458Y189336D01*
X382664Y192542D01*
X384400Y196732D01*
X445400Y393732D02*
X445400Y398268D01*
X443664Y402458D01*
X440458Y405664D01*
X436268Y407400D01*
X431732Y407400D01*
X427542Y405664D01*
X424336Y402458D01*
X422600Y398268D01*
X422600Y393732D01*
X424336Y389542D01*
X427542Y386336D01*
X431732Y384600D01*
X436268Y384600D01*
X440458Y386336D01*
X443664Y389542D01*
X445400Y393732D01*
X145400Y198268D02*
X145400Y193732D01*
X145400Y198268D02*
X144631Y200125D01*
X172029Y200125D01*
X174475Y202571D01*
X177504Y205600D01*
X179237Y205600D01*
X182400Y208763D01*
X182400Y213237D01*
X179237Y216400D01*
X174763Y216400D01*
X171600Y213237D01*
X171600Y211504D01*
X168571Y208475D01*
X145429Y208475D01*
X143625Y210279D01*
X143625Y212112D01*
X140462Y215275D01*
X135988Y215275D01*
X132825Y212112D01*
X132825Y207638D01*
X133063Y207400D01*
X131732Y207400D01*
X127542Y205664D01*
X124336Y202458D01*
X122600Y198268D01*
X122600Y193732D01*
X124336Y189542D01*
X127542Y186336D01*
X131732Y184600D01*
X136268Y184600D01*
X140458Y186336D01*
X143664Y189542D01*
X145400Y193732D01*
X367660Y345650D02*
X372340Y345650D01*
X367660Y345650D02*
X364350Y342340D01*
X364350Y337660D01*
X367660Y334350D01*
X372340Y334350D01*
X374815Y336825D01*
X452185Y336825D01*
X453660Y335350D01*
X458340Y335350D01*
X461650Y338660D01*
X461650Y343340D01*
X458340Y346650D01*
X453660Y346650D01*
X452185Y345175D01*
X372815Y345175D01*
X372340Y345650D01*
X345300Y335237D02*
X345300Y330763D01*
X345300Y335237D02*
X342137Y338400D01*
X337663Y338400D01*
X334500Y335237D01*
X334500Y330763D01*
X334818Y330445D01*
X331469Y327096D01*
X328950Y324577D01*
X328950Y315423D01*
X331469Y312904D01*
X334350Y310023D01*
X334350Y309913D01*
X337513Y306750D01*
X341987Y306750D01*
X345150Y309913D01*
X345150Y314387D01*
X343763Y315773D01*
X343815Y315825D01*
X425825Y315825D01*
X425825Y293815D01*
X424350Y292340D01*
X424350Y287660D01*
X427660Y284350D01*
X432340Y284350D01*
X435650Y287660D01*
X435650Y292340D01*
X434175Y293815D01*
X434175Y321729D01*
X431729Y324175D01*
X343815Y324175D01*
X342340Y325650D01*
X342185Y325650D01*
X344300Y327765D01*
X344300Y329763D01*
X345300Y330763D01*
X349418Y271171D02*
X349418Y271171D01*
X351937Y273690D01*
X351937Y282844D01*
X344250Y290532D01*
X344250Y296260D01*
X345650Y297660D01*
X345650Y302340D01*
X342340Y305650D01*
X337660Y305650D01*
X334350Y302340D01*
X334350Y297660D01*
X335750Y296260D01*
X335750Y290532D01*
X335700Y290482D01*
X335700Y286919D01*
X338702Y283917D01*
X338547Y283917D01*
X335237Y280608D01*
X335237Y278698D01*
X314643Y258104D01*
X285317Y258104D01*
X282798Y255586D01*
X282798Y255586D01*
X281509Y254297D01*
X281509Y254297D01*
X280800Y253588D01*
X280800Y264474D01*
X278281Y266992D01*
X277300Y267974D01*
X277300Y274781D01*
X277045Y275036D01*
X277045Y277945D01*
X273735Y281255D01*
X273580Y281255D01*
X363844Y371519D01*
X364663Y370700D01*
X369137Y370700D01*
X372300Y373863D01*
X372300Y378337D01*
X369137Y381500D01*
X366188Y381500D01*
X371300Y386611D01*
X371300Y406910D01*
X372650Y408260D01*
X372650Y412940D01*
X369340Y416250D01*
X364660Y416250D01*
X361350Y412940D01*
X361350Y408260D01*
X362700Y406910D01*
X362700Y390174D01*
X355681Y383154D01*
X355681Y383310D01*
X352371Y386619D01*
X347690Y386619D01*
X345940Y384869D01*
X172646Y384869D01*
X131900Y425615D01*
X131900Y425615D01*
X129615Y427900D01*
X126090Y427900D01*
X124340Y429650D01*
X119660Y429650D01*
X116350Y426340D01*
X116350Y421660D01*
X119660Y418350D01*
X124340Y418350D01*
X126090Y420100D01*
X126385Y420100D01*
X167131Y379354D01*
X167131Y379354D01*
X169415Y377069D01*
X345940Y377069D01*
X347690Y375319D01*
X347846Y375319D01*
X257464Y284938D01*
X254945Y282419D01*
X254945Y259781D01*
X259443Y255283D01*
X258200Y254040D01*
X258200Y253885D01*
X253750Y258335D01*
X253750Y261306D01*
X235650Y279406D01*
X235650Y281315D01*
X232340Y284625D01*
X227660Y284625D01*
X224350Y281315D01*
X224350Y276635D01*
X227660Y273325D01*
X229569Y273325D01*
X245150Y257744D01*
X245150Y254773D01*
X259273Y240650D01*
X268427Y240650D01*
X278281Y250504D01*
X278990Y251213D01*
X278990Y237869D01*
X281509Y235350D01*
X282591Y234269D01*
X282591Y234269D01*
X285109Y231750D01*
X310460Y231750D01*
X310350Y231640D01*
X310350Y226960D01*
X313660Y223650D01*
X318340Y223650D01*
X319940Y225250D01*
X331022Y225250D01*
X336350Y219922D01*
X336350Y217660D01*
X339660Y214350D01*
X344340Y214350D01*
X347650Y217660D01*
X347650Y222340D01*
X344340Y225650D01*
X342078Y225650D01*
X334378Y233350D01*
X327290Y233350D01*
X328650Y234710D01*
X328650Y239390D01*
X325340Y242700D01*
X320660Y242700D01*
X318310Y240350D01*
X300640Y240350D01*
X301650Y241360D01*
X301650Y243446D01*
X302309Y244104D01*
X320442Y244104D01*
X339872Y263534D01*
X341781Y263534D01*
X344300Y266053D01*
X344300Y266053D01*
X349418Y271171D01*
X405650Y232340D02*
X405650Y227660D01*
X405650Y232340D02*
X402340Y235650D01*
X397660Y235650D01*
X394350Y232340D01*
X394350Y227660D01*
X395700Y226310D01*
X395700Y219940D01*
X394350Y218590D01*
X394350Y213910D01*
X397660Y210600D01*
X402340Y210600D01*
X405650Y213910D01*
X405650Y218590D01*
X404300Y219940D01*
X404300Y226310D01*
X405650Y227660D01*
X84211Y375099D02*
X84211Y379779D01*
X82461Y381529D01*
X82461Y421945D01*
X93865Y433350D01*
X95340Y433350D01*
X98650Y436660D01*
X98650Y441340D01*
X95340Y444650D01*
X90660Y444650D01*
X87350Y441340D01*
X87350Y437865D01*
X74661Y425176D01*
X74661Y381529D01*
X72911Y379779D01*
X72911Y375099D01*
X76221Y371789D01*
X80901Y371789D01*
X84211Y375099D01*
X3800Y5000D02*
X486200Y5000D01*
X486200Y10000D02*
X3800Y10000D01*
X3800Y15000D02*
X486200Y15000D01*
X486200Y20000D02*
X3800Y20000D01*
X3800Y25000D02*
X486200Y25000D01*
X486200Y30000D02*
X3800Y30000D01*
X3800Y35000D02*
X486200Y35000D01*
X486200Y40000D02*
X3800Y40000D01*
X3800Y45000D02*
X486200Y45000D01*
X486200Y50000D02*
X3800Y50000D01*
X3800Y55000D02*
X486200Y55000D01*
X486200Y60000D02*
X3800Y60000D01*
X3800Y65000D02*
X486200Y65000D01*
X486200Y70000D02*
X3800Y70000D01*
X3800Y75000D02*
X400464Y75000D01*
X417536Y75000D02*
X486200Y75000D01*
X397235Y80000D02*
X3800Y80000D01*
X420765Y80000D02*
X486200Y80000D01*
X396600Y85000D02*
X3800Y85000D01*
X421400Y85000D02*
X486200Y85000D01*
X398064Y90000D02*
X3800Y90000D01*
X419936Y90000D02*
X486200Y90000D01*
X36364Y95000D02*
X3800Y95000D01*
X59236Y95000D02*
X156764Y95000D01*
X179636Y95000D02*
X403154Y95000D01*
X414846Y95000D02*
X486200Y95000D01*
X31364Y100000D02*
X3800Y100000D01*
X64236Y100000D02*
X151764Y100000D01*
X184636Y100000D02*
X486200Y100000D01*
X29287Y105000D02*
X3800Y105000D01*
X66313Y105000D02*
X149687Y105000D01*
X186713Y105000D02*
X447464Y105000D01*
X464536Y105000D02*
X486200Y105000D01*
X28400Y110000D02*
X3800Y110000D01*
X67200Y110000D02*
X148800Y110000D01*
X187600Y110000D02*
X444235Y110000D01*
X467765Y110000D02*
X486200Y110000D01*
X28458Y115000D02*
X3800Y115000D01*
X67142Y115000D02*
X148858Y115000D01*
X187542Y115000D02*
X443600Y115000D01*
X468400Y115000D02*
X486200Y115000D01*
X30530Y120000D02*
X3800Y120000D01*
X65070Y120000D02*
X150930Y120000D01*
X185470Y120000D02*
X445064Y120000D01*
X466936Y120000D02*
X486200Y120000D01*
X34364Y125000D02*
X3800Y125000D01*
X104525Y125000D02*
X154764Y125000D01*
X181636Y125000D02*
X450154Y125000D01*
X461846Y125000D02*
X486200Y125000D01*
X42975Y130000D02*
X3800Y130000D01*
X52625Y130000D02*
X55800Y130000D01*
X105200Y130000D02*
X113892Y130000D01*
X127108Y130000D02*
X163375Y130000D01*
X173025Y130000D02*
X486200Y130000D01*
X55800Y135000D02*
X3800Y135000D01*
X105473Y135000D02*
X110527Y135000D01*
X130473Y135000D02*
X400464Y135000D01*
X417536Y135000D02*
X486200Y135000D01*
X55800Y140000D02*
X3800Y140000D01*
X105900Y140000D02*
X110100Y140000D01*
X130900Y140000D02*
X397235Y140000D01*
X420765Y140000D02*
X486200Y140000D01*
X55800Y145000D02*
X3800Y145000D01*
X105200Y145000D02*
X112692Y145000D01*
X128308Y145000D02*
X396600Y145000D01*
X421400Y145000D02*
X486200Y145000D01*
X55800Y150000D02*
X3800Y150000D01*
X105200Y150000D02*
X113892Y150000D01*
X127108Y150000D02*
X398064Y150000D01*
X419936Y150000D02*
X486200Y150000D01*
X55800Y155000D02*
X3800Y155000D01*
X105473Y155000D02*
X110527Y155000D01*
X130473Y155000D02*
X403154Y155000D01*
X414846Y155000D02*
X486200Y155000D01*
X55800Y160000D02*
X3800Y160000D01*
X105900Y160000D02*
X110100Y160000D01*
X130900Y160000D02*
X384878Y160000D01*
X401122Y160000D02*
X486200Y160000D01*
X55800Y165000D02*
X3800Y165000D01*
X105200Y165000D02*
X112692Y165000D01*
X128308Y165000D02*
X381903Y165000D01*
X404097Y165000D02*
X486200Y165000D01*
X55800Y170000D02*
X3800Y170000D01*
X105200Y170000D02*
X381600Y170000D01*
X404400Y170000D02*
X486200Y170000D01*
X55800Y175000D02*
X3800Y175000D01*
X107990Y175000D02*
X383878Y175000D01*
X402122Y175000D02*
X486200Y175000D01*
X55800Y180000D02*
X3800Y180000D01*
X108650Y180000D02*
X486200Y180000D01*
X55800Y185000D02*
X3800Y185000D01*
X105200Y185000D02*
X130767Y185000D01*
X137233Y185000D02*
X486200Y185000D01*
X51777Y190000D02*
X3800Y190000D01*
X105200Y190000D02*
X124146Y190000D01*
X143854Y190000D02*
X365878Y190000D01*
X380122Y190000D02*
X388878Y190000D01*
X403122Y190000D02*
X486200Y190000D01*
X46777Y195000D02*
X3800Y195000D01*
X105200Y195000D02*
X122600Y195000D01*
X145400Y195000D02*
X362318Y195000D01*
X383682Y195000D02*
X385318Y195000D01*
X406682Y195000D02*
X486200Y195000D01*
X41600Y200000D02*
X3800Y200000D01*
X54223Y200000D02*
X55800Y200000D01*
X105200Y200000D02*
X123318Y200000D01*
X144682Y200000D02*
X361600Y200000D01*
X384400Y200000D02*
X384600Y200000D01*
X407400Y200000D02*
X486200Y200000D01*
X43363Y205000D02*
X3800Y205000D01*
X50637Y205000D02*
X55800Y205000D01*
X105200Y205000D02*
X126878Y205000D01*
X176904Y205000D02*
X363146Y205000D01*
X382854Y205000D02*
X386146Y205000D01*
X405854Y205000D02*
X486200Y205000D01*
X12010Y210000D02*
X3800Y210000D01*
X17990Y210000D02*
X55800Y210000D01*
X105200Y210000D02*
X132825Y210000D01*
X143904Y210000D02*
X170096Y210000D01*
X182400Y210000D02*
X369767Y210000D01*
X376233Y210000D02*
X392767Y210000D01*
X399233Y210000D02*
X486200Y210000D01*
X9350Y215000D02*
X3800Y215000D01*
X20657Y215000D02*
X55800Y215000D01*
X105200Y215000D02*
X135713Y215000D01*
X140737Y215000D02*
X173363Y215000D01*
X180637Y215000D02*
X339010Y215000D01*
X344990Y215000D02*
X394350Y215000D01*
X405650Y215000D02*
X486200Y215000D01*
X12010Y220000D02*
X3800Y220000D01*
X25657Y220000D02*
X55800Y220000D01*
X105200Y220000D02*
X336272Y220000D01*
X347650Y220000D02*
X395700Y220000D01*
X404300Y220000D02*
X486200Y220000D01*
X14010Y225000D02*
X3800Y225000D01*
X30657Y225000D02*
X55800Y225000D01*
X105200Y225000D02*
X312310Y225000D01*
X319690Y225000D02*
X331272Y225000D01*
X344990Y225000D02*
X395700Y225000D01*
X404300Y225000D02*
X486200Y225000D01*
X12350Y230000D02*
X3800Y230000D01*
X53082Y230000D02*
X55800Y230000D01*
X105200Y230000D02*
X152901Y230000D01*
X165099Y230000D02*
X310350Y230000D01*
X337728Y230000D02*
X394350Y230000D01*
X405650Y230000D02*
X486200Y230000D01*
X18131Y235000D02*
X3800Y235000D01*
X29869Y235000D02*
X46768Y235000D01*
X105200Y235000D02*
X152600Y235000D01*
X165400Y235000D02*
X207363Y235000D01*
X212637Y235000D02*
X281859Y235000D01*
X328650Y235000D02*
X397010Y235000D01*
X402990Y235000D02*
X486200Y235000D01*
X23131Y240000D02*
X3800Y240000D01*
X34869Y240000D02*
X49435Y240000D01*
X105200Y240000D02*
X133949Y240000D01*
X165400Y240000D02*
X203777Y240000D01*
X215400Y240000D02*
X278990Y240000D01*
X328040Y240000D02*
X486200Y240000D01*
X28131Y245000D02*
X3800Y245000D01*
X117813Y245000D02*
X126121Y245000D01*
X165392Y245000D02*
X198777Y245000D01*
X212637Y245000D02*
X254923Y245000D01*
X272777Y245000D02*
X278990Y245000D01*
X287590Y245000D02*
X290350Y245000D01*
X321338Y245000D02*
X486200Y245000D01*
X47343Y250000D02*
X3800Y250000D01*
X105200Y250000D02*
X109176Y250000D01*
X115650Y250000D02*
X124600Y250000D01*
X142051Y250000D02*
X167878Y250000D01*
X186122Y250000D02*
X193777Y250000D01*
X206223Y250000D02*
X249923Y250000D01*
X277777Y250000D02*
X278990Y250000D01*
X326338Y250000D02*
X486200Y250000D01*
X42343Y255000D02*
X3800Y255000D01*
X105200Y255000D02*
X126121Y255000D01*
X139879Y255000D02*
X165600Y255000D01*
X188400Y255000D02*
X188777Y255000D01*
X201223Y255000D02*
X245150Y255000D01*
X257085Y255000D02*
X259160Y255000D01*
X280800Y255000D02*
X282212Y255000D01*
X331338Y255000D02*
X486200Y255000D01*
X12797Y260000D02*
X3800Y260000D01*
X29203Y260000D02*
X38974Y260000D01*
X48657Y260000D02*
X51010Y260000D01*
X105200Y260000D02*
X165903Y260000D01*
X196223Y260000D02*
X242894Y260000D01*
X253750Y260000D02*
X254945Y260000D01*
X280800Y260000D02*
X316539Y260000D01*
X336338Y260000D02*
X486200Y260000D01*
X10250Y265000D02*
X3800Y265000D01*
X34203Y265000D02*
X37324Y265000D01*
X105200Y265000D02*
X168878Y265000D01*
X185122Y265000D02*
X185600Y265000D01*
X194400Y265000D02*
X237894Y265000D01*
X250056Y265000D02*
X254945Y265000D01*
X280274Y265000D02*
X321539Y265000D01*
X343247Y265000D02*
X486200Y265000D01*
X10250Y270000D02*
X3800Y270000D01*
X25990Y270000D02*
X27465Y270000D01*
X105200Y270000D02*
X185600Y270000D01*
X194400Y270000D02*
X232894Y270000D01*
X245056Y270000D02*
X254945Y270000D01*
X277300Y270000D02*
X326539Y270000D01*
X348247Y270000D02*
X486200Y270000D01*
X10250Y275000D02*
X3800Y275000D01*
X18550Y275000D02*
X21475Y275000D01*
X30525Y275000D02*
X32465Y275000D01*
X105200Y275000D02*
X185600Y275000D01*
X194400Y275000D02*
X225985Y275000D01*
X240056Y275000D02*
X254945Y275000D01*
X277081Y275000D02*
X331539Y275000D01*
X351937Y275000D02*
X486200Y275000D01*
X10250Y280000D02*
X3800Y280000D01*
X19545Y280000D02*
X26475Y280000D01*
X35525Y280000D02*
X36863Y280000D01*
X57378Y280000D02*
X185600Y280000D01*
X194400Y280000D02*
X224350Y280000D01*
X235650Y280000D02*
X254945Y280000D01*
X274990Y280000D02*
X335237Y280000D01*
X351937Y280000D02*
X486200Y280000D01*
X12807Y285000D02*
X3800Y285000D01*
X24545Y285000D02*
X31475Y285000D01*
X40525Y285000D02*
X46100Y285000D01*
X53900Y285000D02*
X185600Y285000D01*
X194400Y285000D02*
X257526Y285000D01*
X277325Y285000D02*
X337619Y285000D01*
X349782Y285000D02*
X427010Y285000D01*
X432990Y285000D02*
X486200Y285000D01*
X17807Y290000D02*
X3800Y290000D01*
X29545Y290000D02*
X36475Y290000D01*
X55650Y290000D02*
X185600Y290000D01*
X194400Y290000D02*
X262526Y290000D01*
X282325Y290000D02*
X335700Y290000D01*
X344782Y290000D02*
X424350Y290000D01*
X435650Y290000D02*
X486200Y290000D01*
X22807Y295000D02*
X3800Y295000D01*
X53990Y295000D02*
X185600Y295000D01*
X194400Y295000D02*
X267526Y295000D01*
X287325Y295000D02*
X335750Y295000D01*
X344250Y295000D02*
X425825Y295000D01*
X434175Y295000D02*
X486200Y295000D01*
X27807Y300000D02*
X3800Y300000D01*
X110650Y300000D02*
X185600Y300000D01*
X194400Y300000D02*
X272526Y300000D01*
X292325Y300000D02*
X334350Y300000D01*
X345650Y300000D02*
X425825Y300000D01*
X434175Y300000D02*
X486200Y300000D01*
X31850Y305000D02*
X3800Y305000D01*
X47000Y305000D02*
X51475Y305000D01*
X109990Y305000D02*
X185600Y305000D01*
X194400Y305000D02*
X277526Y305000D01*
X297325Y305000D02*
X337010Y305000D01*
X342990Y305000D02*
X425825Y305000D01*
X434175Y305000D02*
X486200Y305000D01*
X31850Y310000D02*
X3800Y310000D01*
X47000Y310000D02*
X185600Y310000D01*
X194400Y310000D02*
X282526Y310000D01*
X302325Y310000D02*
X334350Y310000D01*
X345150Y310000D02*
X425825Y310000D01*
X434175Y310000D02*
X486200Y310000D01*
X31850Y315000D02*
X3800Y315000D01*
X47000Y315000D02*
X185600Y315000D01*
X194400Y315000D02*
X287526Y315000D01*
X307325Y315000D02*
X329373Y315000D01*
X344537Y315000D02*
X425825Y315000D01*
X434175Y315000D02*
X486200Y315000D01*
X31850Y320000D02*
X3800Y320000D01*
X47000Y320000D02*
X185600Y320000D01*
X194400Y320000D02*
X292526Y320000D01*
X312325Y320000D02*
X328950Y320000D01*
X434175Y320000D02*
X486200Y320000D01*
X31850Y325000D02*
X3800Y325000D01*
X47000Y325000D02*
X185600Y325000D01*
X194400Y325000D02*
X297526Y325000D01*
X317325Y325000D02*
X329373Y325000D01*
X342990Y325000D02*
X486200Y325000D01*
X30350Y330000D02*
X3800Y330000D01*
X47000Y330000D02*
X185600Y330000D01*
X194400Y330000D02*
X302526Y330000D01*
X322325Y330000D02*
X334373Y330000D01*
X344537Y330000D02*
X486200Y330000D01*
X32010Y335000D02*
X3800Y335000D01*
X47000Y335000D02*
X185600Y335000D01*
X194400Y335000D02*
X307526Y335000D01*
X327325Y335000D02*
X334500Y335000D01*
X345300Y335000D02*
X367010Y335000D01*
X372990Y335000D02*
X486200Y335000D01*
X37350Y340000D02*
X3800Y340000D01*
X48650Y340000D02*
X83010Y340000D01*
X90990Y340000D02*
X184600Y340000D01*
X195400Y340000D02*
X312526Y340000D01*
X332325Y340000D02*
X364350Y340000D01*
X461650Y340000D02*
X486200Y340000D01*
X40010Y345000D02*
X3800Y345000D01*
X45990Y345000D02*
X81350Y345000D01*
X92650Y345000D02*
X187363Y345000D01*
X192637Y345000D02*
X317526Y345000D01*
X337325Y345000D02*
X367010Y345000D01*
X459990Y345000D02*
X486200Y345000D01*
X78485Y350000D02*
X3800Y350000D01*
X89515Y350000D02*
X322526Y350000D01*
X342325Y350000D02*
X486200Y350000D01*
X73485Y355000D02*
X3800Y355000D01*
X84515Y355000D02*
X327526Y355000D01*
X347325Y355000D02*
X486200Y355000D01*
X68485Y360000D02*
X3800Y360000D01*
X79515Y360000D02*
X332526Y360000D01*
X352325Y360000D02*
X486200Y360000D01*
X63485Y365000D02*
X3800Y365000D01*
X74515Y365000D02*
X337526Y365000D01*
X357325Y365000D02*
X486200Y365000D01*
X58485Y370000D02*
X3800Y370000D01*
X69515Y370000D02*
X342526Y370000D01*
X362325Y370000D02*
X486200Y370000D01*
X57100Y375000D02*
X3800Y375000D01*
X64900Y375000D02*
X73010Y375000D01*
X84112Y375000D02*
X347526Y375000D01*
X372300Y375000D02*
X486200Y375000D01*
X57100Y380000D02*
X3800Y380000D01*
X64900Y380000D02*
X73131Y380000D01*
X83990Y380000D02*
X166485Y380000D01*
X370637Y380000D02*
X486200Y380000D01*
X57100Y385000D02*
X3800Y385000D01*
X64900Y385000D02*
X74661Y385000D01*
X82461Y385000D02*
X161485Y385000D01*
X172515Y385000D02*
X346071Y385000D01*
X353990Y385000D02*
X357526Y385000D01*
X369689Y385000D02*
X430767Y385000D01*
X437233Y385000D02*
X486200Y385000D01*
X57100Y390000D02*
X3800Y390000D01*
X64900Y390000D02*
X74661Y390000D01*
X82461Y390000D02*
X156485Y390000D01*
X167515Y390000D02*
X362526Y390000D01*
X371300Y390000D02*
X424146Y390000D01*
X443854Y390000D02*
X486200Y390000D01*
X57100Y395000D02*
X3800Y395000D01*
X64900Y395000D02*
X74661Y395000D01*
X82461Y395000D02*
X151485Y395000D01*
X162515Y395000D02*
X362700Y395000D01*
X371300Y395000D02*
X422600Y395000D01*
X445400Y395000D02*
X486200Y395000D01*
X56010Y400000D02*
X3800Y400000D01*
X65990Y400000D02*
X74661Y400000D01*
X82461Y400000D02*
X146485Y400000D01*
X157515Y400000D02*
X362700Y400000D01*
X371300Y400000D02*
X423318Y400000D01*
X444682Y400000D02*
X486200Y400000D01*
X55350Y405000D02*
X3800Y405000D01*
X66650Y405000D02*
X74661Y405000D01*
X82461Y405000D02*
X141485Y405000D01*
X152515Y405000D02*
X344577Y405000D01*
X355877Y405000D02*
X362700Y405000D01*
X371300Y405000D02*
X426878Y405000D01*
X441122Y405000D02*
X486200Y405000D01*
X74661Y410000D02*
X3800Y410000D01*
X82461Y410000D02*
X136485Y410000D01*
X147515Y410000D02*
X345010Y410000D01*
X355444Y410000D02*
X361350Y410000D01*
X372650Y410000D02*
X486200Y410000D01*
X74661Y415000D02*
X3800Y415000D01*
X82461Y415000D02*
X131485Y415000D01*
X142515Y415000D02*
X347100Y415000D01*
X354900Y415000D02*
X363410Y415000D01*
X370590Y415000D02*
X486200Y415000D01*
X74661Y420000D02*
X3800Y420000D01*
X82461Y420000D02*
X118010Y420000D01*
X125990Y420000D02*
X126485Y420000D01*
X137515Y420000D02*
X347100Y420000D01*
X354900Y420000D02*
X486200Y420000D01*
X74661Y425000D02*
X3800Y425000D01*
X85515Y425000D02*
X116350Y425000D01*
X132515Y425000D02*
X347100Y425000D01*
X354900Y425000D02*
X486200Y425000D01*
X79485Y430000D02*
X3800Y430000D01*
X90515Y430000D02*
X347100Y430000D01*
X354900Y430000D02*
X486200Y430000D01*
X84485Y435000D02*
X3800Y435000D01*
X96990Y435000D02*
X347100Y435000D01*
X359650Y435000D02*
X486200Y435000D01*
X87350Y440000D02*
X3800Y440000D01*
X98650Y440000D02*
X349010Y440000D01*
X358990Y440000D02*
X486200Y440000D01*
X486200Y445000D02*
X3800Y445000D01*
X3800Y450000D02*
X486200Y450000D01*
X486200Y455000D02*
X3800Y455000D01*
X3800Y460000D02*
X486200Y460000D01*
X486200Y465000D02*
X3800Y465000D01*
X3800Y470000D02*
X486200Y470000D01*
X486200Y475000D02*
X3800Y475000D01*
X5000Y476200D02*
X5000Y3800D01*
X10000Y3800D02*
X10000Y212010D01*
X10000Y217990D02*
X10000Y476200D01*
X15000Y209350D02*
X15000Y3800D01*
X15000Y220657D02*
X15000Y224010D01*
X15000Y233990D02*
X15000Y257797D01*
X15000Y287193D02*
X15000Y476200D01*
X20000Y212010D02*
X20000Y3800D01*
X20000Y236869D02*
X20000Y256250D01*
X20000Y273525D02*
X20000Y280455D01*
X20000Y292193D02*
X20000Y476200D01*
X25000Y219343D02*
X25000Y3800D01*
X25000Y241869D02*
X25000Y256250D01*
X25000Y278525D02*
X25000Y285455D01*
X25000Y297193D02*
X25000Y476200D01*
X30000Y103278D02*
X30000Y3800D01*
X30000Y118722D02*
X30000Y224343D01*
X30000Y235000D02*
X30000Y235131D01*
X30000Y246869D02*
X30000Y260797D01*
X30000Y272535D02*
X30000Y274475D01*
X30000Y283525D02*
X30000Y290455D01*
X30000Y302193D02*
X30000Y476200D01*
X35000Y96364D02*
X35000Y3800D01*
X35000Y125636D02*
X35000Y227000D01*
X35000Y235000D02*
X35000Y240131D01*
X35000Y249750D02*
X35000Y265797D01*
X35000Y277535D02*
X35000Y279475D01*
X35000Y288525D02*
X35000Y292200D01*
X35000Y336650D02*
X35000Y476200D01*
X40000Y93232D02*
X40000Y3800D01*
X40000Y128768D02*
X40000Y227000D01*
X40000Y235000D02*
X40000Y241450D01*
X40000Y249750D02*
X40000Y257343D01*
X40000Y283000D02*
X40000Y284475D01*
X40000Y344990D02*
X40000Y476200D01*
X45000Y91600D02*
X45000Y3800D01*
X45000Y130400D02*
X45000Y195600D01*
X45000Y206400D02*
X45000Y227000D01*
X45000Y235000D02*
X45000Y241450D01*
X45000Y249750D02*
X45000Y252343D01*
X45000Y282337D02*
X45000Y288010D01*
X45000Y345650D02*
X45000Y476200D01*
X50000Y91600D02*
X50000Y3800D01*
X50000Y130400D02*
X50000Y191777D01*
X50000Y205637D02*
X50000Y227000D01*
X50000Y240565D02*
X50000Y241450D01*
X50000Y258990D02*
X50000Y263477D01*
X50000Y303525D02*
X50000Y476200D01*
X55000Y92984D02*
X55000Y3800D01*
X55000Y129016D02*
X55000Y186777D01*
X55000Y199222D02*
X55000Y230925D01*
X55000Y249750D02*
X55000Y249856D01*
X55000Y281550D02*
X55000Y288010D01*
X55000Y293990D02*
X55000Y298800D01*
X55000Y305200D02*
X55000Y476200D01*
X60000Y95764D02*
X60000Y3800D01*
X60000Y277200D02*
X60000Y298800D01*
X60000Y305200D02*
X60000Y368485D01*
X60000Y408650D02*
X60000Y476200D01*
X65000Y101830D02*
X65000Y3800D01*
X65000Y120170D02*
X65000Y123800D01*
X65000Y277200D02*
X65000Y298800D01*
X65000Y305200D02*
X65000Y363485D01*
X65000Y374515D02*
X65000Y399010D01*
X65000Y406990D02*
X65000Y476200D01*
X70000Y123800D02*
X70000Y3800D01*
X70000Y277200D02*
X70000Y298800D01*
X70000Y305200D02*
X70000Y358485D01*
X70000Y369515D02*
X70000Y476200D01*
X75000Y123800D02*
X75000Y3800D01*
X75000Y277200D02*
X75000Y298800D01*
X75000Y305200D02*
X75000Y353485D01*
X75000Y364515D02*
X75000Y373010D01*
X75000Y425515D02*
X75000Y476200D01*
X80000Y123800D02*
X80000Y3800D01*
X80000Y277200D02*
X80000Y298800D01*
X80000Y305200D02*
X80000Y348485D01*
X80000Y359515D02*
X80000Y371789D01*
X80000Y430515D02*
X80000Y476200D01*
X85000Y123800D02*
X85000Y3800D01*
X85000Y277200D02*
X85000Y298800D01*
X85000Y305200D02*
X85000Y338350D01*
X85000Y354515D02*
X85000Y424485D01*
X85000Y435515D02*
X85000Y476200D01*
X90000Y123800D02*
X90000Y3800D01*
X90000Y277200D02*
X90000Y298800D01*
X90000Y305200D02*
X90000Y339010D01*
X90000Y349515D02*
X90000Y429485D01*
X90000Y443990D02*
X90000Y476200D01*
X95000Y123800D02*
X95000Y3800D01*
X95000Y277200D02*
X95000Y298800D01*
X95000Y305200D02*
X95000Y433350D01*
X95000Y444650D02*
X95000Y476200D01*
X100000Y123800D02*
X100000Y3800D01*
X100000Y277200D02*
X100000Y298800D01*
X100000Y305200D02*
X100000Y476200D01*
X105000Y125475D02*
X105000Y3800D01*
X105000Y275525D02*
X105000Y296350D01*
X105000Y307650D02*
X105000Y476200D01*
X110000Y240376D02*
X110000Y3800D01*
X110000Y250824D02*
X110000Y299010D01*
X110000Y304990D02*
X110000Y476200D01*
X115000Y129121D02*
X115000Y3800D01*
X115000Y147079D02*
X115000Y149121D01*
X115000Y167079D02*
X115000Y240550D01*
X115000Y250650D02*
X115000Y476200D01*
X120000Y127700D02*
X120000Y3800D01*
X120000Y168500D02*
X120000Y418350D01*
X120000Y429650D02*
X120000Y476200D01*
X125000Y128707D02*
X125000Y3800D01*
X125000Y147493D02*
X125000Y148707D01*
X125000Y167493D02*
X125000Y188878D01*
X125000Y203122D02*
X125000Y247363D01*
X125000Y252637D02*
X125000Y419010D01*
X125000Y428990D02*
X125000Y476200D01*
X130000Y133859D02*
X130000Y3800D01*
X130000Y142341D02*
X130000Y153859D01*
X130000Y162341D02*
X130000Y185318D01*
X130000Y206682D02*
X130000Y242151D01*
X130000Y257849D02*
X130000Y416485D01*
X130000Y427515D02*
X130000Y476200D01*
X135000Y184600D02*
X135000Y3800D01*
X135000Y214287D02*
X135000Y238949D01*
X135000Y258264D02*
X135000Y411485D01*
X135000Y422515D02*
X135000Y476200D01*
X140000Y186146D02*
X140000Y3800D01*
X140000Y215275D02*
X140000Y236100D01*
X140000Y254879D02*
X140000Y406485D01*
X140000Y417515D02*
X140000Y476200D01*
X145000Y192767D02*
X145000Y3800D01*
X145000Y199233D02*
X145000Y200125D01*
X145000Y208904D02*
X145000Y236100D01*
X145000Y248900D02*
X145000Y401485D01*
X145000Y412515D02*
X145000Y476200D01*
X150000Y104244D02*
X150000Y3800D01*
X150000Y117756D02*
X150000Y200125D01*
X150000Y208475D02*
X150000Y236100D01*
X150000Y248900D02*
X150000Y396485D01*
X150000Y407515D02*
X150000Y476200D01*
X155000Y96764D02*
X155000Y3800D01*
X155000Y125236D02*
X155000Y200125D01*
X155000Y208475D02*
X155000Y226949D01*
X155000Y248900D02*
X155000Y391485D01*
X155000Y402515D02*
X155000Y476200D01*
X160000Y93398D02*
X160000Y3800D01*
X160000Y128602D02*
X160000Y200125D01*
X160000Y208475D02*
X160000Y225600D01*
X160000Y248900D02*
X160000Y386485D01*
X160000Y397515D02*
X160000Y476200D01*
X165000Y91600D02*
X165000Y3800D01*
X165000Y130400D02*
X165000Y200125D01*
X165000Y208475D02*
X165000Y229761D01*
X165000Y245946D02*
X165000Y381485D01*
X165000Y392515D02*
X165000Y476200D01*
X170000Y91600D02*
X170000Y3800D01*
X170000Y130400D02*
X170000Y200125D01*
X170000Y209904D02*
X170000Y247878D01*
X170000Y266122D02*
X170000Y377069D01*
X170000Y387515D02*
X170000Y476200D01*
X175000Y92818D02*
X175000Y3800D01*
X175000Y129182D02*
X175000Y203096D01*
X175000Y216400D02*
X175000Y245600D01*
X175000Y268400D02*
X175000Y377069D01*
X175000Y384869D02*
X175000Y476200D01*
X180000Y95364D02*
X180000Y3800D01*
X180000Y126636D02*
X180000Y206363D01*
X180000Y215637D02*
X180000Y245903D01*
X180000Y268097D02*
X180000Y377069D01*
X180000Y384869D02*
X180000Y476200D01*
X185000Y100864D02*
X185000Y3800D01*
X185000Y121136D02*
X185000Y248878D01*
X185000Y265122D02*
X185000Y337363D01*
X185000Y342637D02*
X185000Y377069D01*
X185000Y384869D02*
X185000Y476200D01*
X190000Y253777D02*
X190000Y3800D01*
X190000Y345400D02*
X190000Y377069D01*
X190000Y384869D02*
X190000Y476200D01*
X195000Y248777D02*
X195000Y3800D01*
X195000Y261223D02*
X195000Y337363D01*
X195000Y342637D02*
X195000Y377069D01*
X195000Y384869D02*
X195000Y476200D01*
X200000Y243777D02*
X200000Y3800D01*
X200000Y256223D02*
X200000Y377069D01*
X200000Y384869D02*
X200000Y476200D01*
X205000Y237363D02*
X205000Y3800D01*
X205000Y251223D02*
X205000Y377069D01*
X205000Y384869D02*
X205000Y476200D01*
X210000Y234600D02*
X210000Y3800D01*
X210000Y246223D02*
X210000Y377069D01*
X210000Y384869D02*
X210000Y476200D01*
X215000Y237363D02*
X215000Y3800D01*
X215000Y242637D02*
X215000Y377069D01*
X215000Y384869D02*
X215000Y476200D01*
X220000Y377069D02*
X220000Y3800D01*
X220000Y384869D02*
X220000Y476200D01*
X225000Y275985D02*
X225000Y3800D01*
X225000Y281965D02*
X225000Y377069D01*
X225000Y384869D02*
X225000Y476200D01*
X230000Y272894D02*
X230000Y3800D01*
X230000Y284625D02*
X230000Y377069D01*
X230000Y384869D02*
X230000Y476200D01*
X235000Y267894D02*
X235000Y3800D01*
X235000Y281965D02*
X235000Y377069D01*
X235000Y384869D02*
X235000Y476200D01*
X240000Y262894D02*
X240000Y3800D01*
X240000Y275056D02*
X240000Y377069D01*
X240000Y384869D02*
X240000Y476200D01*
X245000Y257894D02*
X245000Y3800D01*
X245000Y270056D02*
X245000Y377069D01*
X245000Y384869D02*
X245000Y476200D01*
X250000Y249923D02*
X250000Y3800D01*
X250000Y265056D02*
X250000Y377069D01*
X250000Y384869D02*
X250000Y476200D01*
X255000Y244923D02*
X255000Y3800D01*
X255000Y257085D02*
X255000Y259726D01*
X255000Y282474D02*
X255000Y377069D01*
X255000Y384869D02*
X255000Y476200D01*
X260000Y240650D02*
X260000Y3800D01*
X260000Y287474D02*
X260000Y377069D01*
X260000Y384869D02*
X260000Y476200D01*
X265000Y240650D02*
X265000Y3800D01*
X265000Y292474D02*
X265000Y377069D01*
X265000Y384869D02*
X265000Y476200D01*
X270000Y242223D02*
X270000Y3800D01*
X270000Y254385D02*
X270000Y254600D01*
X270000Y297474D02*
X270000Y377069D01*
X270000Y384869D02*
X270000Y476200D01*
X275000Y247223D02*
X275000Y3800D01*
X275000Y279990D02*
X275000Y282675D01*
X275000Y302474D02*
X275000Y377069D01*
X275000Y384869D02*
X275000Y476200D01*
X280000Y236859D02*
X280000Y3800D01*
X280000Y265274D02*
X280000Y287675D01*
X280000Y307474D02*
X280000Y377069D01*
X280000Y384869D02*
X280000Y476200D01*
X285000Y231859D02*
X285000Y3800D01*
X285000Y257788D02*
X285000Y292675D01*
X285000Y312474D02*
X285000Y377069D01*
X285000Y384869D02*
X285000Y476200D01*
X290000Y231750D02*
X290000Y3800D01*
X290000Y240350D02*
X290000Y249505D01*
X290000Y258104D02*
X290000Y297675D01*
X290000Y317474D02*
X290000Y377069D01*
X290000Y384869D02*
X290000Y476200D01*
X295000Y231750D02*
X295000Y3800D01*
X295000Y249350D02*
X295000Y249505D01*
X295000Y258104D02*
X295000Y302675D01*
X295000Y322474D02*
X295000Y377069D01*
X295000Y384869D02*
X295000Y476200D01*
X300000Y231750D02*
X300000Y3800D01*
X300000Y258104D02*
X300000Y307675D01*
X300000Y327474D02*
X300000Y377069D01*
X300000Y384869D02*
X300000Y476200D01*
X305000Y231750D02*
X305000Y3800D01*
X305000Y240350D02*
X305000Y244104D01*
X305000Y258104D02*
X305000Y312675D01*
X305000Y332474D02*
X305000Y377069D01*
X305000Y384869D02*
X305000Y476200D01*
X310000Y231750D02*
X310000Y3800D01*
X310000Y240350D02*
X310000Y244104D01*
X310000Y258104D02*
X310000Y317675D01*
X310000Y337474D02*
X310000Y377069D01*
X310000Y384869D02*
X310000Y476200D01*
X315000Y223650D02*
X315000Y3800D01*
X315000Y240350D02*
X315000Y244104D01*
X315000Y258461D02*
X315000Y322675D01*
X315000Y342474D02*
X315000Y377069D01*
X315000Y384869D02*
X315000Y476200D01*
X320000Y225250D02*
X320000Y3800D01*
X320000Y242040D02*
X320000Y244104D01*
X320000Y263461D02*
X320000Y327675D01*
X320000Y347474D02*
X320000Y377069D01*
X320000Y384869D02*
X320000Y476200D01*
X325000Y225250D02*
X325000Y3800D01*
X325000Y242700D02*
X325000Y248662D01*
X325000Y268461D02*
X325000Y332675D01*
X325000Y352474D02*
X325000Y377069D01*
X325000Y384869D02*
X325000Y476200D01*
X330000Y225250D02*
X330000Y3800D01*
X330000Y233350D02*
X330000Y253662D01*
X330000Y273461D02*
X330000Y314373D01*
X330000Y325627D02*
X330000Y337675D01*
X330000Y357474D02*
X330000Y377069D01*
X330000Y384869D02*
X330000Y476200D01*
X335000Y221272D02*
X335000Y3800D01*
X335000Y232728D02*
X335000Y258662D01*
X335000Y278461D02*
X335000Y297010D01*
X335000Y302990D02*
X335000Y309263D01*
X335000Y335737D02*
X335000Y342675D01*
X335000Y362474D02*
X335000Y377069D01*
X335000Y384869D02*
X335000Y476200D01*
X340000Y214350D02*
X340000Y3800D01*
X340000Y227728D02*
X340000Y263534D01*
X340000Y305650D02*
X340000Y306750D01*
X340000Y338400D02*
X340000Y347675D01*
X340000Y367474D02*
X340000Y377069D01*
X340000Y384869D02*
X340000Y476200D01*
X345000Y215010D02*
X345000Y3800D01*
X345000Y224990D02*
X345000Y266753D01*
X345000Y289782D02*
X345000Y297010D01*
X345000Y302990D02*
X345000Y309763D01*
X345000Y314537D02*
X345000Y315825D01*
X345000Y324175D02*
X345000Y330463D01*
X345000Y335537D02*
X345000Y352675D01*
X345000Y372474D02*
X345000Y377069D01*
X345000Y384869D02*
X345000Y404464D01*
X345000Y409990D02*
X345000Y476200D01*
X350000Y271753D02*
X350000Y3800D01*
X350000Y284782D02*
X350000Y315825D01*
X350000Y324175D02*
X350000Y357675D01*
X350000Y386619D02*
X350000Y401577D01*
X350000Y440990D02*
X350000Y476200D01*
X355000Y315825D02*
X355000Y3800D01*
X355000Y324175D02*
X355000Y362675D01*
X355000Y383990D02*
X355000Y404010D01*
X355000Y410444D02*
X355000Y431350D01*
X355000Y442650D02*
X355000Y476200D01*
X360000Y315825D02*
X360000Y3800D01*
X360000Y324175D02*
X360000Y367675D01*
X360000Y387474D02*
X360000Y476200D01*
X365000Y190878D02*
X365000Y3800D01*
X365000Y207122D02*
X365000Y315825D01*
X365000Y324175D02*
X365000Y337010D01*
X365000Y342990D02*
X365000Y370700D01*
X365000Y416250D02*
X365000Y476200D01*
X370000Y187903D02*
X370000Y3800D01*
X370000Y210097D02*
X370000Y315825D01*
X370000Y324175D02*
X370000Y334350D01*
X370000Y345650D02*
X370000Y371563D01*
X370000Y380637D02*
X370000Y385311D01*
X370000Y415590D02*
X370000Y476200D01*
X375000Y187600D02*
X375000Y3800D01*
X375000Y210400D02*
X375000Y315825D01*
X375000Y324175D02*
X375000Y336825D01*
X375000Y345175D02*
X375000Y476200D01*
X380000Y189878D02*
X380000Y3800D01*
X380000Y208122D02*
X380000Y315825D01*
X380000Y324175D02*
X380000Y336825D01*
X380000Y345175D02*
X380000Y476200D01*
X385000Y159878D02*
X385000Y3800D01*
X385000Y176122D02*
X385000Y195767D01*
X385000Y202233D02*
X385000Y315825D01*
X385000Y324175D02*
X385000Y336825D01*
X385000Y345175D02*
X385000Y476200D01*
X390000Y156903D02*
X390000Y3800D01*
X390000Y179097D02*
X390000Y189146D01*
X390000Y208854D02*
X390000Y315825D01*
X390000Y324175D02*
X390000Y336825D01*
X390000Y345175D02*
X390000Y476200D01*
X395000Y156600D02*
X395000Y3800D01*
X395000Y179400D02*
X395000Y187600D01*
X395000Y210400D02*
X395000Y213260D01*
X395000Y219240D02*
X395000Y227010D01*
X395000Y232990D02*
X395000Y315825D01*
X395000Y324175D02*
X395000Y336825D01*
X395000Y345175D02*
X395000Y476200D01*
X400000Y75464D02*
X400000Y3800D01*
X400000Y92536D02*
X400000Y135464D01*
X400000Y152536D02*
X400000Y158878D01*
X400000Y177122D02*
X400000Y188318D01*
X400000Y209682D02*
X400000Y210600D01*
X400000Y235650D02*
X400000Y315825D01*
X400000Y324175D02*
X400000Y336825D01*
X400000Y345175D02*
X400000Y476200D01*
X405000Y72235D02*
X405000Y3800D01*
X405000Y95765D02*
X405000Y132235D01*
X405000Y155765D02*
X405000Y191878D01*
X405000Y206122D02*
X405000Y213260D01*
X405000Y219240D02*
X405000Y227010D01*
X405000Y232990D02*
X405000Y315825D01*
X405000Y324175D02*
X405000Y336825D01*
X405000Y345175D02*
X405000Y476200D01*
X410000Y71600D02*
X410000Y3800D01*
X410000Y96400D02*
X410000Y131600D01*
X410000Y156400D02*
X410000Y315825D01*
X410000Y324175D02*
X410000Y336825D01*
X410000Y345175D02*
X410000Y476200D01*
X415000Y73064D02*
X415000Y3800D01*
X415000Y94936D02*
X415000Y133064D01*
X415000Y154936D02*
X415000Y315825D01*
X415000Y324175D02*
X415000Y336825D01*
X415000Y345175D02*
X415000Y476200D01*
X420000Y78154D02*
X420000Y3800D01*
X420000Y89846D02*
X420000Y138154D01*
X420000Y149846D02*
X420000Y315825D01*
X420000Y324175D02*
X420000Y336825D01*
X420000Y345175D02*
X420000Y476200D01*
X425000Y287010D02*
X425000Y3800D01*
X425000Y292990D02*
X425000Y315825D01*
X425000Y324175D02*
X425000Y336825D01*
X425000Y345175D02*
X425000Y388878D01*
X425000Y403122D02*
X425000Y476200D01*
X430000Y284350D02*
X430000Y3800D01*
X430000Y324175D02*
X430000Y336825D01*
X430000Y345175D02*
X430000Y385318D01*
X430000Y406682D02*
X430000Y476200D01*
X435000Y287010D02*
X435000Y3800D01*
X435000Y292990D02*
X435000Y336825D01*
X435000Y345175D02*
X435000Y384600D01*
X435000Y407400D02*
X435000Y476200D01*
X440000Y336825D02*
X440000Y3800D01*
X440000Y345175D02*
X440000Y386146D01*
X440000Y405854D02*
X440000Y476200D01*
X445000Y108154D02*
X445000Y3800D01*
X445000Y119846D02*
X445000Y336825D01*
X445000Y345175D02*
X445000Y392767D01*
X445000Y399233D02*
X445000Y476200D01*
X450000Y103064D02*
X450000Y3800D01*
X450000Y124936D02*
X450000Y336825D01*
X450000Y345175D02*
X450000Y476200D01*
X455000Y101600D02*
X455000Y3800D01*
X455000Y126400D02*
X455000Y335350D01*
X455000Y346650D02*
X455000Y476200D01*
X460000Y102235D02*
X460000Y3800D01*
X460000Y125765D02*
X460000Y337010D01*
X460000Y344990D02*
X460000Y476200D01*
X465000Y105464D02*
X465000Y3800D01*
X465000Y122536D02*
X465000Y476200D01*
X470000Y476200D02*
X470000Y3800D01*
X475000Y3800D02*
X475000Y476200D01*
X480000Y476200D02*
X480000Y3800D01*
X485000Y3800D02*
X485000Y476200D01*
D14*
X105000Y302000D03*
D25*
X53000Y302000D01*
X21000Y270000D01*
X21000Y267000D01*
D14*
X21000Y267000D03*
X15000Y215000D03*
D26*
X31000Y231000D01*
X48425Y231000D02*
X54000Y236575D01*
D14*
X54000Y236575D03*
D26*
X48425Y231000D02*
X31000Y231000D01*
D14*
X43000Y340000D03*
D26*
X43000Y300000D01*
X39100Y296100D02*
X39100Y296090D01*
D14*
X39100Y296090D03*
D26*
X39100Y296100D02*
X43000Y300000D01*
D14*
X42974Y265974D03*
D26*
X42974Y260026D01*
X52000Y253000D02*
X54506Y255506D01*
D14*
X54506Y255506D03*
D26*
X50000Y253000D02*
X42974Y260026D01*
X50000Y253000D02*
X52000Y253000D01*
D14*
X61000Y403000D03*
D21*
X61000Y373000D01*
X87000Y347000D02*
X87000Y344000D01*
D14*
X87000Y344000D03*
D21*
X87000Y347000D02*
X61000Y373000D01*
M02*
