G04 EAGLE Gerber RS-274X export*
G75*
%MOMM*%
%FSLAX34Y34*%
%LPD*%
%INSolderpaste Top*%
%IPPOS*%
%AMOC8*
5,1,8,0,0,1.08239X$1,22.5*%
G01*
%ADD10R,1.080000X1.050000*%
%ADD11R,1.050000X1.080000*%
%ADD12R,2.000000X1.500000*%
%ADD13R,3.000000X1.500000*%
%ADD14R,0.620000X1.220000*%
%ADD15R,2.670000X2.540000*%
%ADD16R,0.760000X1.270000*%
%ADD17R,1.000000X0.600000*%
%ADD18R,1.800000X1.250000*%
%ADD19R,4.250000X1.200000*%
%ADD20R,0.600000X0.300000*%
%ADD21R,0.705000X1.125000*%
%ADD22R,0.800000X0.280000*%
%ADD23R,0.280000X0.800000*%
%ADD24R,2.100000X2.100000*%
%ADD25R,0.600000X0.600000*%
%ADD26R,0.500000X0.700000*%
%ADD27R,0.640000X0.700000*%

G36*
X404048Y256012D02*
X404048Y256012D01*
X404146Y256015D01*
X404169Y256024D01*
X404193Y256026D01*
X404282Y256066D01*
X404374Y256101D01*
X404393Y256117D01*
X404416Y256127D01*
X404530Y256220D01*
X416030Y267720D01*
X416087Y267800D01*
X416149Y267875D01*
X416157Y267898D01*
X416172Y267919D01*
X416200Y268012D01*
X416235Y268103D01*
X416238Y268136D01*
X416243Y268152D01*
X416242Y268177D01*
X416249Y268250D01*
X416249Y278500D01*
X416247Y278516D01*
X416248Y278527D01*
X416246Y278533D01*
X416248Y278549D01*
X416226Y278644D01*
X416210Y278741D01*
X416198Y278762D01*
X416192Y278786D01*
X416141Y278870D01*
X416095Y278956D01*
X416077Y278973D01*
X416064Y278994D01*
X415988Y279056D01*
X415917Y279123D01*
X415894Y279133D01*
X415875Y279149D01*
X415784Y279183D01*
X415694Y279224D01*
X415670Y279226D01*
X415647Y279235D01*
X415500Y279249D01*
X404250Y279249D01*
X404154Y279233D01*
X404057Y279224D01*
X404034Y279214D01*
X404009Y279210D01*
X403923Y279164D01*
X403834Y279123D01*
X403809Y279102D01*
X403794Y279095D01*
X403777Y279076D01*
X403773Y279073D01*
X403772Y279073D01*
X403771Y279072D01*
X403720Y279030D01*
X392720Y268030D01*
X392706Y268010D01*
X392687Y267994D01*
X392635Y267911D01*
X392578Y267831D01*
X392571Y267808D01*
X392558Y267787D01*
X392536Y267692D01*
X392507Y267598D01*
X392508Y267573D01*
X392502Y267550D01*
X392512Y267452D01*
X392515Y267354D01*
X392524Y267331D01*
X392526Y267307D01*
X392566Y267218D01*
X392601Y267126D01*
X392617Y267107D01*
X392627Y267084D01*
X392720Y266970D01*
X403470Y256220D01*
X403490Y256206D01*
X403506Y256187D01*
X403589Y256135D01*
X403669Y256078D01*
X403692Y256071D01*
X403713Y256058D01*
X403808Y256036D01*
X403902Y256007D01*
X403927Y256008D01*
X403950Y256002D01*
X404048Y256012D01*
G37*
G36*
X361846Y298767D02*
X361846Y298767D01*
X361943Y298776D01*
X361966Y298786D01*
X361991Y298790D01*
X362077Y298836D01*
X362166Y298877D01*
X362191Y298898D01*
X362206Y298905D01*
X362223Y298924D01*
X362280Y298970D01*
X373280Y309970D01*
X373294Y309990D01*
X373313Y310006D01*
X373365Y310089D01*
X373422Y310169D01*
X373429Y310192D01*
X373442Y310213D01*
X373464Y310308D01*
X373493Y310402D01*
X373492Y310427D01*
X373498Y310450D01*
X373488Y310548D01*
X373485Y310646D01*
X373476Y310669D01*
X373474Y310693D01*
X373434Y310782D01*
X373399Y310874D01*
X373384Y310893D01*
X373373Y310916D01*
X373280Y311030D01*
X362530Y321780D01*
X362510Y321794D01*
X362494Y321813D01*
X362413Y321864D01*
X362397Y321877D01*
X362392Y321879D01*
X362331Y321922D01*
X362308Y321929D01*
X362287Y321942D01*
X362192Y321964D01*
X362098Y321993D01*
X362073Y321992D01*
X362050Y321998D01*
X361952Y321988D01*
X361854Y321985D01*
X361831Y321976D01*
X361807Y321974D01*
X361718Y321934D01*
X361626Y321899D01*
X361607Y321884D01*
X361584Y321873D01*
X361523Y321823D01*
X361522Y321823D01*
X361521Y321822D01*
X361470Y321780D01*
X349970Y310280D01*
X349913Y310200D01*
X349852Y310125D01*
X349843Y310102D01*
X349828Y310081D01*
X349800Y309988D01*
X349765Y309897D01*
X349762Y309864D01*
X349757Y309848D01*
X349758Y309823D01*
X349751Y309750D01*
X349751Y299500D01*
X349755Y299476D01*
X349752Y299451D01*
X349775Y299356D01*
X349790Y299259D01*
X349802Y299238D01*
X349808Y299214D01*
X349859Y299130D01*
X349905Y299044D01*
X349923Y299027D01*
X349936Y299006D01*
X350012Y298944D01*
X350084Y298877D01*
X350106Y298867D01*
X350125Y298852D01*
X350216Y298817D01*
X350306Y298776D01*
X350330Y298774D01*
X350353Y298765D01*
X350500Y298751D01*
X361750Y298751D01*
X361846Y298767D01*
G37*
G36*
X415524Y298755D02*
X415524Y298755D01*
X415549Y298752D01*
X415644Y298775D01*
X415741Y298790D01*
X415762Y298802D01*
X415786Y298808D01*
X415870Y298859D01*
X415956Y298905D01*
X415973Y298923D01*
X415994Y298936D01*
X416056Y299012D01*
X416123Y299084D01*
X416133Y299106D01*
X416149Y299125D01*
X416183Y299216D01*
X416224Y299306D01*
X416226Y299330D01*
X416235Y299353D01*
X416249Y299500D01*
X416249Y309750D01*
X416233Y309846D01*
X416224Y309943D01*
X416214Y309966D01*
X416210Y309991D01*
X416164Y310077D01*
X416123Y310166D01*
X416102Y310191D01*
X416095Y310206D01*
X416076Y310223D01*
X416030Y310280D01*
X404530Y321780D01*
X404510Y321794D01*
X404494Y321813D01*
X404413Y321864D01*
X404397Y321877D01*
X404392Y321879D01*
X404331Y321922D01*
X404308Y321929D01*
X404287Y321942D01*
X404192Y321964D01*
X404098Y321993D01*
X404073Y321992D01*
X404050Y321998D01*
X403952Y321988D01*
X403854Y321985D01*
X403831Y321976D01*
X403807Y321974D01*
X403718Y321934D01*
X403626Y321899D01*
X403607Y321884D01*
X403584Y321873D01*
X403523Y321823D01*
X403522Y321823D01*
X403521Y321822D01*
X403470Y321780D01*
X392720Y311030D01*
X392706Y311010D01*
X392687Y310994D01*
X392635Y310911D01*
X392578Y310831D01*
X392571Y310808D01*
X392558Y310787D01*
X392536Y310692D01*
X392507Y310598D01*
X392508Y310573D01*
X392502Y310550D01*
X392512Y310452D01*
X392515Y310354D01*
X392524Y310331D01*
X392526Y310307D01*
X392566Y310218D01*
X392601Y310126D01*
X392617Y310107D01*
X392627Y310084D01*
X392720Y309970D01*
X403720Y298970D01*
X403800Y298913D01*
X403875Y298852D01*
X403898Y298843D01*
X403919Y298828D01*
X404012Y298800D01*
X404103Y298765D01*
X404136Y298762D01*
X404152Y298757D01*
X404177Y298758D01*
X404250Y298751D01*
X415500Y298751D01*
X415524Y298755D01*
G37*
G36*
X362048Y256012D02*
X362048Y256012D01*
X362146Y256015D01*
X362169Y256024D01*
X362193Y256026D01*
X362282Y256066D01*
X362374Y256101D01*
X362393Y256117D01*
X362416Y256127D01*
X362530Y256220D01*
X373280Y266970D01*
X373294Y266990D01*
X373313Y267006D01*
X373365Y267089D01*
X373422Y267169D01*
X373429Y267192D01*
X373442Y267213D01*
X373464Y267308D01*
X373493Y267402D01*
X373492Y267427D01*
X373498Y267450D01*
X373488Y267548D01*
X373485Y267646D01*
X373476Y267669D01*
X373474Y267693D01*
X373434Y267782D01*
X373399Y267874D01*
X373384Y267893D01*
X373373Y267916D01*
X373280Y268030D01*
X362280Y279030D01*
X362200Y279087D01*
X362125Y279149D01*
X362102Y279157D01*
X362081Y279172D01*
X361988Y279200D01*
X361897Y279235D01*
X361864Y279238D01*
X361848Y279243D01*
X361823Y279242D01*
X361750Y279249D01*
X350500Y279249D01*
X350476Y279245D01*
X350451Y279248D01*
X350356Y279226D01*
X350259Y279210D01*
X350238Y279198D01*
X350214Y279192D01*
X350130Y279141D01*
X350044Y279095D01*
X350027Y279077D01*
X350006Y279064D01*
X349944Y278988D01*
X349877Y278917D01*
X349867Y278894D01*
X349852Y278875D01*
X349817Y278784D01*
X349776Y278694D01*
X349774Y278670D01*
X349765Y278647D01*
X349751Y278500D01*
X349751Y268250D01*
X349767Y268154D01*
X349776Y268057D01*
X349786Y268034D01*
X349790Y268009D01*
X349836Y267923D01*
X349877Y267834D01*
X349898Y267809D01*
X349905Y267794D01*
X349924Y267777D01*
X349970Y267720D01*
X361470Y256220D01*
X361490Y256206D01*
X361506Y256187D01*
X361589Y256135D01*
X361669Y256078D01*
X361692Y256071D01*
X361713Y256058D01*
X361808Y256036D01*
X361902Y256007D01*
X361927Y256008D01*
X361950Y256002D01*
X362048Y256012D01*
G37*
D10*
X109000Y231650D03*
X109000Y214350D03*
X336000Y239350D03*
X336000Y256650D03*
D11*
X277650Y212000D03*
X260350Y212000D03*
X438350Y361000D03*
X455650Y361000D03*
D12*
X435000Y340000D03*
X435000Y310000D03*
D11*
X410650Y395000D03*
X393350Y395000D03*
X393350Y357000D03*
X410650Y357000D03*
X94350Y196000D03*
X111650Y196000D03*
X70650Y192000D03*
X53350Y192000D03*
D10*
X116000Y274350D03*
X116000Y291650D03*
D11*
X179350Y196000D03*
X196650Y196000D03*
D13*
X161000Y317000D03*
X161000Y287000D03*
D11*
X312050Y307900D03*
X329350Y307900D03*
X176350Y235000D03*
X193650Y235000D03*
D10*
X466000Y236650D03*
X466000Y219350D03*
D14*
X437500Y199100D03*
X418500Y199100D03*
X428000Y172900D03*
X437500Y172900D03*
X418500Y172900D03*
D15*
X319000Y209000D03*
D16*
X295505Y209000D03*
D11*
X229650Y308000D03*
X212350Y308000D03*
D10*
X284300Y316350D03*
X284300Y333650D03*
X146000Y220350D03*
X146000Y237650D03*
D17*
X337000Y394500D03*
X337000Y379500D03*
X337000Y409500D03*
X337000Y424500D03*
D18*
X285000Y450550D03*
X285000Y353450D03*
D19*
X383000Y262000D03*
X383000Y316000D03*
D20*
X353500Y240750D03*
X353500Y234250D03*
X353500Y227750D03*
X353500Y221250D03*
X384500Y221250D03*
X384500Y227750D03*
X384500Y234250D03*
X384500Y240750D03*
D21*
X366900Y237625D03*
X366900Y224375D03*
X375950Y224375D03*
X375950Y237625D03*
D20*
X408500Y240750D03*
X408500Y234250D03*
X408500Y227750D03*
X408500Y221250D03*
X439500Y221250D03*
X439500Y227750D03*
X439500Y234250D03*
X439500Y240750D03*
D21*
X421900Y237625D03*
X421900Y224375D03*
X430950Y224375D03*
X430950Y237625D03*
D11*
X121350Y361000D03*
X138650Y361000D03*
X357350Y395000D03*
X374650Y395000D03*
D10*
X260000Y289650D03*
X260000Y272350D03*
X241000Y272350D03*
X241000Y289650D03*
X71000Y216350D03*
X71000Y233650D03*
X90000Y215350D03*
X90000Y232650D03*
D11*
X309350Y326000D03*
X326650Y326000D03*
X248350Y326800D03*
X265650Y326800D03*
X229650Y327000D03*
X212350Y327000D03*
D10*
X128000Y220350D03*
X128000Y237650D03*
D11*
X393350Y338000D03*
X410650Y338000D03*
X393350Y376000D03*
X410650Y376000D03*
D22*
X62000Y276250D03*
X62000Y282750D03*
X62000Y269750D03*
X62000Y263250D03*
D23*
X70250Y255000D03*
X76750Y255000D03*
X83250Y255000D03*
X89750Y255000D03*
D22*
X98000Y263250D03*
X98000Y269750D03*
X98000Y276250D03*
X98000Y282750D03*
D23*
X89750Y291000D03*
X83250Y291000D03*
X76750Y291000D03*
X70250Y291000D03*
D24*
X80000Y273000D03*
D23*
X308500Y290500D03*
X303500Y290500D03*
X298500Y290500D03*
X293500Y290500D03*
D22*
X283500Y280500D03*
X283500Y275500D03*
X283500Y270500D03*
X283500Y265500D03*
D23*
X293500Y255500D03*
X298500Y255500D03*
X303500Y255500D03*
X308500Y255500D03*
D22*
X318500Y265500D03*
X318500Y270500D03*
X318500Y275500D03*
X318500Y280500D03*
D25*
X306000Y278000D03*
X306000Y268000D03*
X296000Y268000D03*
X296000Y278000D03*
D10*
X255000Y131350D03*
X255000Y148650D03*
D11*
X15350Y193000D03*
X32650Y193000D03*
X28650Y378000D03*
X11350Y378000D03*
X14350Y253000D03*
X31650Y253000D03*
D10*
X63000Y342350D03*
X63000Y359650D03*
D26*
X105000Y411000D03*
X97000Y411000D03*
X97000Y397000D03*
X105000Y397000D03*
D27*
X113000Y411000D03*
X113000Y397000D03*
X89000Y411000D03*
X89000Y397000D03*
M02*
