M48
;GenerationSoftware,Autodesk,EAGLE,9.3.2*%
;CreationDate,2019-08-02T19:16:56Z*%
FMAT,2
ICI,OFF
METRIC,TZ,000.000
T7C0.300
T6C0.350
T5C0.800
T4C0.900
T3C1.000
T2C1.200
T1C2.300
%
G90
M71
T1
X16820Y11100
X4780Y11100
T2
X45600Y11400
X40900Y14400
X40900Y8400
T3
X17700Y25700
X39300Y16800
X39600Y19900
X37300Y19900
X43400Y39600
X13400Y19600
T4
X12050Y13810
X12050Y15810
X9550Y15810
X9550Y13810
T5
X13300Y25000
T6
X27140Y27560
X40000Y21625
X40000Y23000
X31600Y22930
X34200Y22000
X29600Y24370
X26385Y25170
X36700Y41060
X35400Y43700
X35023Y40723
X5349Y27590
X5000Y29100
X7856Y37744
X9300Y43900
X35003Y38097
X12200Y42400
X34000Y30000
X3600Y33100
X10300Y17800
X15900Y23200
X10500Y30200
X2100Y26700
X1500Y21500
X5400Y23657
X4300Y34000
X3910Y29609
X4297Y26597
X5451Y25551
X8700Y34400
X1800Y22900
X37000Y34000
X45600Y34100
X34000Y32000
X43000Y29000
X34089Y27827
X32300Y23705
X23000Y27897
X6100Y40300
T7
X33990Y33300
X33975Y31215
X17700Y21100
X11241Y24560
X13822Y20988
X4210Y27760
X4700Y20100
X36690Y37610
X27000Y26000
X21000Y24000
X19000Y34000
M30